<svg xmlns="http://www.w3.org/2000/svg">
  <defs>

    <svg id="icon_add_date" viewBox="0 0 24 24">
      <path fill-rule="evenodd" d="M19 7.92164262v8.73507218C19 17.9508755 17.9477246 19 16.6567148 19H7.34328523C6.04912453 19 5 17.9477246 5 16.6567148V6.75C5 5.7835017 5.79281354 5 6.74480274 5H17.2551973C18.2188252 5 19 5.77676344 19 6.75v1.17164262zM17.8333333 8.5H6.16666667v8.1567148c0 .6480081.52811987 1.1766185 1.17661856 1.1766185h9.31342957c.6480081 0 1.1766185-.5281198 1.1766185-1.1766185V8.5zM7.33333333 9.66666667h2.33333334V12H7.33333333V9.66666667zm3.5 0h2.33333334V12h-2.33333334V9.66666667zm3.5 0h2.33333337V12h-2.33333337V9.66666667z"/>
    </svg>

    <svg id="icon-home" viewBox="0 0 480 480">
      <g>
        <g>
          <path d="M240.135,0.05C144.085,0.036,57.277,57.289,19.472,145.586l-2.992,0.992l1.16,3.48
            c-49.776,122.766,9.393,262.639,132.159,312.415c28.673,11.626,59.324,17.594,90.265,17.577
            c132.548,0.02,240.016-107.416,240.036-239.964S372.684,0.069,240.135,0.05z M428.388,361.054l-12.324-12.316V320.05
            c0.014-1.238-0.26-2.462-0.8-3.576l-31.2-62.312V224.05c0-2.674-1.335-5.172-3.56-6.656l-24-16
            c-1.881-1.256-4.206-1.657-6.4-1.104l-29.392,7.344l-49.368-21.184l-6.792-47.584l18.824-18.816h40.408l13.6,20.44
            c1.228,1.838,3.163,3.087,5.344,3.448l48,8c1.286,0.216,2.604,0.111,3.84-0.304l44.208-14.736
            C475.855,208.053,471.889,293.634,428.388,361.054z M395.392,78.882l-13.008,8.672l-36.264-7.256l-23.528-7.832
            c-1.44-0.489-2.99-0.551-4.464-0.176l-29.744,7.432l-13.04-4.344l9.664-19.328h27.056c1.241,0.001,2.465-0.286,3.576-0.84
            l27.68-13.84C362.382,51.32,379.918,63.952,395.392,78.882z M152.44,33.914l19.2,12.8c0.944,0.628,2.01,1.048,3.128,1.232
            l38.768,6.464l-3.784,11.32l-20.2,6.744c-1.809,0.602-3.344,1.83-4.328,3.464l-22.976,38.288l-36.904,22.144l-54.4,7.768
            c-3.943,0.557-6.875,3.93-6.88,7.912v24c0,2.122,0.844,4.156,2.344,5.656l13.656,13.656v13.744l-33.28-22.192l-12.072-36.216
            C57.68,98.218,99.777,56.458,152.44,33.914z M129.664,296.21l-36.16-7.24l-13.44-26.808v-18.8l29.808-29.808l11.032,22.072
            c1.355,2.712,4.128,4.425,7.16,4.424h51.472l21.672,36.12c1.446,2.407,4.048,3.879,6.856,3.88h22.24l-5.6,28.056l-30.288,30.288
            c-1.503,1.499-2.349,3.533-2.352,5.656v20l-28.8,21.6c-2.014,1.511-3.2,3.882-3.2,6.4v28.896l-9.952-3.296l-14.048-35.136V304.05
            C136.065,300.248,133.389,296.97,129.664,296.21z M105.616,419.191C30.187,362.602-1.712,264.826,25.832,174.642l6.648,19.936
            c0.56,1.687,1.666,3.14,3.144,4.128l39.88,26.584l-9.096,9.104c-1.5,1.5-2.344,3.534-2.344,5.656v24
            c-0.001,1.241,0.286,2.465,0.84,3.576l16,32c1.108,2.21,3.175,3.784,5.6,4.264l33.6,6.712v73.448
            c-0.001,1.016,0.192,2.024,0.568,2.968l16,40c0.876,2.185,2.67,3.874,4.904,4.616l24,8c0.802,0.272,1.642,0.412,2.488,0.416
            c4.418,0,8-3.582,8-8v-36l28.8-21.6c2.014-1.511,3.2-3.882,3.2-6.4v-20.688l29.656-29.656c1.115-1.117,1.875-2.54,2.184-4.088
            l8-40c0.866-4.333-1.944-8.547-6.277-9.413c-0.515-0.103-1.038-0.155-1.563-0.155h-27.472l-21.672-36.12
            c-1.446-2.407-4.048-3.879-6.856-3.88h-51.056l-13.744-27.576c-1.151-2.302-3.339-3.91-5.88-4.32
            c-2.54-0.439-5.133,0.399-6.936,2.24l-10.384,10.344V192.05c0-2.122-0.844-4.156-2.344-5.656l-13.656-13.656v-13.752l49.136-7.016
            c1.055-0.153,2.07-0.515,2.984-1.064l40-24c1.122-0.674,2.062-1.614,2.736-2.736l22.48-37.464l21.192-7.072
            c2.393-0.785,4.271-2.662,5.056-5.056l8-24c1.386-4.195-0.891-8.72-5.086-10.106c-0.387-0.128-0.784-0.226-1.186-0.294
            l-46.304-7.72l-8.136-5.424c50.343-16.386,104.869-14.358,153.856,5.72l-14.616,7.296h-30.112c-3.047-0.017-5.838,1.699-7.2,4.424
            l-16,32c-1.971,3.954-0.364,8.758,3.59,10.729c0.337,0.168,0.685,0.312,1.042,0.431l24,8c1.44,0.489,2.99,0.551,4.464,0.176
            l29.744-7.432l21.792,7.256c0.312,0.112,0.633,0.198,0.96,0.256l40,8c2.08,0.424,4.244-0.002,6.008-1.184l18.208-12.144
            c8.961,9.981,17.014,20.741,24.064,32.152l-39.36,13.12l-42.616-7.104l-14.08-21.12c-1.476-2.213-3.956-3.547-6.616-3.56h-48
            c-2.122,0-4.156,0.844-5.656,2.344l-24,24c-1.782,1.781-2.621,4.298-2.264,6.792l8,56c0.403,2.769,2.223,5.126,4.8,6.216l56,24
            c1.604,0.695,3.394,0.838,5.088,0.408l28.568-7.144l17.464,11.664v27.72c-0.014,1.238,0.26,2.462,0.8,3.576l31.2,62.312v30.112
            c0,2.122,0.844,4.156,2.344,5.656l16.736,16.744C344.921,473.383,204.549,493.415,105.616,419.191z"/>
        </g>
      </g>
      <g>
      </g>
      <g>
      </g>
      <g>
      </g>
      <g>
      </g>
      <g>
      </g>
      <g>
      </g>
      <g>
      </g>
      <g>
      </g>
      <g>
      </g>
      <g>
      </g>
      <g>
      </g>
      <g>
      </g>
      <g>
      </g>
      <g>
      </g>
      <g>
      </g>
  </svg>


    <svg id="icon-linkedin" viewBox="0 0 112.196 112.196">
      <g>
        <circle style="fill:#007AB9;" cx="56.098" cy="56.097" r="56.098"/>
        <g>
          <path style="fill:#F1F2F2;" d="M89.616,60.611v23.128H76.207V62.161c0-5.418-1.936-9.118-6.791-9.118
            c-3.705,0-5.906,2.491-6.878,4.903c-0.353,0.862-0.444,2.059-0.444,3.268v22.524H48.684c0,0,0.18-36.546,0-40.329h13.411v5.715
            c-0.027,0.045-0.065,0.089-0.089,0.132h0.089v-0.132c1.782-2.742,4.96-6.662,12.085-6.662
            C83.002,42.462,89.616,48.226,89.616,60.611L89.616,60.611z M34.656,23.969c-4.587,0-7.588,3.011-7.588,6.967
            c0,3.872,2.914,6.97,7.412,6.97h0.087c4.677,0,7.585-3.098,7.585-6.97C42.063,26.98,39.244,23.969,34.656,23.969L34.656,23.969z
             M27.865,83.739H41.27V43.409H27.865V83.739z"/>
        </g>
      </g>
    </svg>

    <svg id="icon-facebook" viewBox="0 0 291.319 291.319" >
<g>
	<path style="fill:#3B5998;" d="M145.659,0c80.45,0,145.66,65.219,145.66,145.66c0,80.45-65.21,145.659-145.66,145.659
		S0,226.109,0,145.66C0,65.219,65.21,0,145.659,0z"/>
	<path style="fill:#FFFFFF;" d="M163.394,100.277h18.772v-27.73h-22.067v0.1c-26.738,0.947-32.218,15.977-32.701,31.763h-0.055
		v13.847h-18.207v27.156h18.207v72.793h27.439v-72.793h22.477l4.342-27.156h-26.81v-8.366
		C154.791,104.556,158.341,100.277,163.394,100.277z"/>
</g>
</svg>


    <svg id="icon-experience" viewBox="0 0 512 512">
<g>
	<g>
		<path d="M309.561,324.814c-1.402-0.417-2.876-0.51-4.315-0.299c-0.168-0.008-0.337-0.012-0.505-0.019
			c12.981-12.682,21.061-30.361,21.061-49.899V175c0-5.522-4.478-10-10-10h-74.075c-30.617,0-55.526,24.909-55.526,55.526v54.07
			c0,19.538,8.08,37.217,21.061,49.899c-0.168,0.007-0.337,0.011-0.505,0.019c-1.438-0.21-2.913-0.118-4.315,0.299
			c-51.696,4.641-92.352,48.2-92.352,101.084V475c0,5.522,4.478,10,10,10h271.824c5.522,0,10-4.478,10-10v-49.102
			C401.912,373.015,361.257,329.455,309.561,324.814z M206.199,234.533v-14.007h0c0-19.589,15.938-35.526,35.526-35.526H305.8
			v26.761c0,13.522-11.001,24.523-24.523,24.523h-75.078V234.533z M206.199,274.597v-18.313h75.078
			c9.057,0,17.485-2.725,24.523-7.388v25.7c0,27.46-22.341,49.801-49.801,49.801C228.539,324.397,206.199,302.057,206.199,274.597z
			 M282.558,344.397L256,370.955l-26.558-26.558H282.558z M381.912,465H130.088v-28.78h81.604c5.522,0,10-4.478,10-10
			c0-5.522-4.478-10-10-10h-81.009c4.42-37.167,33.939-66.726,71.087-71.21l47.159,47.159c1.953,1.952,4.512,2.929,7.071,2.929
			s5.118-0.977,7.071-2.929l47.159-47.159c40.323,4.867,71.682,39.274,71.682,80.888V465z"/>
	</g>
</g>
<g>
	<g>
		<path d="M263.069,419.15c-1.859-1.86-4.439-2.93-7.069-2.93s-5.21,1.07-7.07,2.93s-2.93,4.44-2.93,7.07s1.069,5.21,2.93,7.07
			c1.86,1.859,4.44,2.93,7.07,2.93s5.21-1.07,7.069-2.93c1.86-1.86,2.931-4.44,2.931-7.07S264.93,421.01,263.069,419.15z"/>
	</g>
</g>
<g>
	<g>
		<path d="M256.127,27c-20.953,0-38,17.047-38,38c0,17.492,11.884,32.253,28,36.655v24.423c0,5.522,4.478,10,10,10s10-4.478,10-10
			v-24.423c16.116-4.402,28-19.163,28-36.655C294.127,44.047,277.08,27,256.127,27z M256.127,83c-9.925,0-18-8.075-18-18
			s8.075-18,18-18s18,8.075,18,18S266.052,83,256.127,83z"/>
	</g>
</g>
<g>
	<g>
		<path d="M456.883,105.001c-7.178-7.177-16.72-11.13-26.87-11.13c-10.15,0-19.692,3.953-26.87,11.131
			c-12.368,12.369-14.402,31.209-6.12,45.718l-17.27,17.27c-3.905,3.905-3.905,10.237,0,14.143c1.954,1.951,4.513,2.928,7.072,2.928
			c2.56,0,5.118-0.977,7.071-2.929l17.262-17.262c5.68,3.257,12.131,5.002,18.855,5.002c10.15,0,19.692-3.953,26.869-11.13
			c7.179-7.177,11.132-16.72,11.132-26.87C468.014,121.722,464.061,112.179,456.883,105.001z M442.742,144.601
			c-7.018,7.018-18.438,7.018-25.455,0c-7.019-7.019-7.019-18.439-0.001-25.457c3.509-3.51,8.118-5.264,12.728-5.264
			s9.219,1.754,12.728,5.264c3.4,3.4,5.273,7.92,5.273,12.729C448.015,136.681,446.142,141.201,442.742,144.601z"/>
	</g>
</g>
<g>
	<g>
		<path d="M474,267.833c-17.492,0-32.253,11.884-36.655,28h-24.423c-5.522,0-10,4.478-10,10c0,5.522,4.478,10,10,10h24.423
			c4.402,16.116,19.163,28,36.655,28c20.953,0,38-17.047,38-38S494.953,267.833,474,267.833z M474,323.833c-9.925,0-18-8.075-18-18
			s8.075-18,18-18s18,8.075,18,18S483.925,323.833,474,323.833z"/>
	</g>
</g>
<g>
	<g>
		<path d="M382.069,298.76c-1.859-1.86-4.439-2.93-7.069-2.93s-5.21,1.069-7.07,2.93c-1.86,1.861-2.93,4.44-2.93,7.07
			c0,2.64,1.069,5.21,2.93,7.069c1.86,1.871,4.44,2.931,7.07,2.931s5.21-1.061,7.069-2.931c1.86-1.859,2.931-4.439,2.931-7.069
			S383.93,300.63,382.069,298.76z"/>
	</g>
</g>
<g>
	<g>
		<path d="M99.078,295.579H74.655c-4.402-16.116-19.163-28-36.655-28c-20.953,0-38,17.047-38,38s17.047,38,38,38
			c17.492,0,32.253-11.884,36.655-28h24.423c5.522,0,10-4.478,10-10C109.078,300.057,104.601,295.579,99.078,295.579z M38,323.579
			c-9.925,0-18-8.075-18-18s8.075-18,18-18s18,8.075,18,18S47.925,323.579,38,323.579z"/>
	</g>
</g>
<g>
	<g>
		<path d="M131.641,167.025l-17.262-17.261c3.258-5.68,5.002-12.132,5.002-18.856c0-10.15-3.953-19.693-11.131-26.871
			c-7.178-7.177-16.72-11.13-26.87-11.13s-19.692,3.953-26.87,11.131c-14.815,14.816-14.815,38.924,0,53.74
			c7.178,7.177,16.72,11.13,26.871,11.13c6.724,0,13.176-1.745,18.856-5.002l17.262,17.262c1.953,1.952,4.512,2.929,7.071,2.929
			s5.118-0.977,7.071-2.929C135.546,177.263,135.546,170.931,131.641,167.025z M94.114,143.632
			c-0.001,0.002-0.003,0.003-0.005,0.005c-7.018,7.02-18.438,7.02-25.455,0c-7.019-7.019-7.019-18.439-0.001-25.457
			c3.509-3.509,8.118-5.264,12.728-5.264c4.61,0,9.219,1.755,12.728,5.264c3.4,3.4,5.273,7.92,5.273,12.729
			C99.382,135.714,97.51,140.233,94.114,143.632z"/>
	</g>
</g>
</svg>


    <svg id="icon-portfolio" viewBox="0 -31 512 512" >
  <path d="m497.09375 60.003906c-.03125 0-.0625-.003906-.09375-.003906h-136v-15c0-24.8125-20.1875-45-45-45h-120c-24.8125 0-45 20.1875-45 45v15h-136c-8.351562 0-15 6.84375-15 15v330c0 24.8125 20.1875 45 45 45h422c24.8125 0 45-20.1875 45-45v-329.683594c0-.019531 0-.039062 0-.058594-.574219-9.851562-6.632812-15.199218-14.90625-15.253906zm-316.09375-15.003906c0-8.269531 6.730469-15 15-15h120c8.269531 0 15 6.730469 15 15v15h-150zm295.1875 45-46.582031 139.742188c-2.042969 6.136718-7.761719 10.257812-14.226563 10.257812h-84.378906v-15c0-8.285156-6.714844-15-15-15h-120c-8.285156 0-15 6.714844-15 15v15h-84.378906c-6.464844 0-12.183594-4.121094-14.226563-10.257812l-46.582031-139.742188zm-175.1875 150v30h-90v-30zm181 165c0 8.269531-6.730469 15-15 15h-422c-8.269531 0-15-6.730469-15-15v-237.566406l23.933594 71.796875c6.132812 18.40625 23.289062 30.769531 42.6875 30.769531h84.378906v15c0 8.285156 6.714844 15 15 15h120c8.285156 0 15-6.714844 15-15v-15h84.378906c19.398438 0 36.554688-12.363281 42.6875-30.769531l23.933594-71.796875zm0 0"/></svg>


    <svg id="icon-about" viewBox="0 0 482.9 482.9">
<g>
	<g>
		<path d="M239.7,260.2c0.5,0,1,0,1.6,0c0.2,0,0.4,0,0.6,0c0.3,0,0.7,0,1,0c29.3-0.5,53-10.8,70.5-30.5
			c38.5-43.4,32.1-117.8,31.4-124.9c-2.5-53.3-27.7-78.8-48.5-90.7C280.8,5.2,262.7,0.4,242.5,0h-0.7c-0.1,0-0.3,0-0.4,0h-0.6
			c-11.1,0-32.9,1.8-53.8,13.7c-21,11.9-46.6,37.4-49.1,91.1c-0.7,7.1-7.1,81.5,31.4,124.9C186.7,249.4,210.4,259.7,239.7,260.2z
			 M164.6,107.3c0-0.3,0.1-0.6,0.1-0.8c3.3-71.7,54.2-79.4,76-79.4h0.4c0.2,0,0.5,0,0.8,0c27,0.6,72.9,11.6,76,79.4
			c0,0.3,0,0.6,0.1,0.8c0.1,0.7,7.1,68.7-24.7,104.5c-12.6,14.2-29.4,21.2-51.5,21.4c-0.2,0-0.3,0-0.5,0l0,0c-0.2,0-0.3,0-0.5,0
			c-22-0.2-38.9-7.2-51.4-21.4C157.7,176.2,164.5,107.9,164.6,107.3z"/>
		<path d="M446.8,383.6c0-0.1,0-0.2,0-0.3c0-0.8-0.1-1.6-0.1-2.5c-0.6-19.8-1.9-66.1-45.3-80.9c-0.3-0.1-0.7-0.2-1-0.3
			c-45.1-11.5-82.6-37.5-83-37.8c-6.1-4.3-14.5-2.8-18.8,3.3c-4.3,6.1-2.8,14.5,3.3,18.8c1.7,1.2,41.5,28.9,91.3,41.7
			c23.3,8.3,25.9,33.2,26.6,56c0,0.9,0,1.7,0.1,2.5c0.1,9-0.5,22.9-2.1,30.9c-16.2,9.2-79.7,41-176.3,41
			c-96.2,0-160.1-31.9-176.4-41.1c-1.6-8-2.3-21.9-2.1-30.9c0-0.8,0.1-1.6,0.1-2.5c0.7-22.8,3.3-47.7,26.6-56
			c49.8-12.8,89.6-40.6,91.3-41.7c6.1-4.3,7.6-12.7,3.3-18.8c-4.3-6.1-12.7-7.6-18.8-3.3c-0.4,0.3-37.7,26.3-83,37.8
			c-0.4,0.1-0.7,0.2-1,0.3c-43.4,14.9-44.7,61.2-45.3,80.9c0,0.9,0,1.7-0.1,2.5c0,0.1,0,0.2,0,0.3c-0.1,5.2-0.2,31.9,5.1,45.3
			c1,2.6,2.8,4.8,5.2,6.3c3,2,74.9,47.8,195.2,47.8s192.2-45.9,195.2-47.8c2.3-1.5,4.2-3.7,5.2-6.3
			C447,415.5,446.9,388.8,446.8,383.6z"/>
	</g>
</g>

</svg>


    <svg id="icon_menu" viewBox="0 0 24 24">
      <path fill-rule="nonzero" d="M3 18h18v-2H3v2zm0-5h18v-2H3v2zm0-7v2h18V6H3z"/>
    </svg>

  </defs>
</svg>
